<svg id="visual" viewBox="0 0 960 540" width="960" height="540" preserveAspectRatio="none" xmlns="http://www.w3.org/2000/svg" xmlns:xlink="http://www.w3.org/1999/xlink" version="1.1"><rect x="0" y="0" width="960" height="540" fill="#405a73"></rect><defs><linearGradient id="grad1_0" x1="43.8%" y1="0%" x2="100%" y2="100%"><stop offset="14.444444444444446%" stop-color="#54c1ab" stop-opacity="1"></stop><stop offset="85.55555555555554%" stop-color="#54c1ab" stop-opacity="1"></stop></linearGradient></defs><defs><linearGradient id="grad1_1" x1="43.8%" y1="0%" x2="100%" y2="100%"><stop offset="14.444444444444446%" stop-color="#54c1ab" stop-opacity="1"></stop><stop offset="85.55555555555554%" stop-color="#405a73" stop-opacity="1"></stop></linearGradient></defs><defs><linearGradient id="grad2_0" x1="0%" y1="0%" x2="56.3%" y2="100%"><stop offset="14.444444444444446%" stop-color="#54c1ab" stop-opacity="1"></stop><stop offset="85.55555555555554%" stop-color="#54c1ab" stop-opacity="1"></stop></linearGradient></defs><defs><linearGradient id="grad2_1" x1="0%" y1="0%" x2="56.3%" y2="100%"><stop offset="14.444444444444446%" stop-color="#405a73" stop-opacity="1"></stop><stop offset="85.55555555555554%" stop-color="#54c1ab" stop-opacity="1"></stop></linearGradient></defs><g transform="translate(960, 0)"><path d="M0 378C-50.7 373.8 -101.3 369.6 -144.7 349.2C-188 328.9 -224 292.4 -255.3 255.3C-286.5 218.2 -312.9 180.4 -332.6 137.8C-352.3 95.1 -365.1 47.6 -378 0L0 0Z" fill="#328d9f"></path><path d="M0 189C-25.3 186.9 -50.7 184.8 -72.3 174.6C-94 164.4 -112 146.2 -127.6 127.6C-143.3 109.1 -156.5 90.2 -166.3 68.9C-176.1 47.6 -182.6 23.8 -189 0L0 0Z" fill="#54c1ab"></path></g><g transform="translate(0, 540)"><path d="M0 -378C49.6 -372.5 99.2 -367.1 144.7 -349.2C190.1 -331.4 231.4 -301.2 265.2 -265.2C298.9 -229.1 325.2 -187.2 342.8 -142C360.3 -96.8 369.2 -48.4 378 0L0 0Z" fill="#328d9f"></path><path d="M0 -189C24.8 -186.3 49.6 -183.5 72.3 -174.6C95.1 -165.7 115.7 -150.6 132.6 -132.6C149.5 -114.6 162.6 -93.6 171.4 -71C180.2 -48.4 184.6 -24.2 189 0L0 0Z" fill="#54c1ab"></path></g></svg>