<svg id="visual" viewBox="0 0 540 960" width="540" height="960" preserveAspectRatio="none" xmlns="http://www.w3.org/2000/svg" xmlns:xlink="http://www.w3.org/1999/xlink" version="1.1"><rect x="0" y="0" width="540" height="960" fill="#405a73"></rect><defs><linearGradient id="grad1_0" x1="0%" y1="100%" x2="100%" y2="0%"><stop offset="30%" stop-color="#54c1ab" stop-opacity="1"></stop><stop offset="70%" stop-color="#54c1ab" stop-opacity="1"></stop></linearGradient></defs><defs><linearGradient id="grad1_1" x1="0%" y1="100%" x2="100%" y2="0%"><stop offset="30%" stop-color="#54c1ab" stop-opacity="1"></stop><stop offset="70%" stop-color="#405a73" stop-opacity="1"></stop></linearGradient></defs><defs><linearGradient id="grad2_0" x1="0%" y1="100%" x2="100%" y2="0%"><stop offset="30%" stop-color="#54c1ab" stop-opacity="1"></stop><stop offset="70%" stop-color="#54c1ab" stop-opacity="1"></stop></linearGradient></defs><defs><linearGradient id="grad2_1" x1="0%" y1="100%" x2="100%" y2="0%"><stop offset="30%" stop-color="#405a73" stop-opacity="1"></stop><stop offset="70%" stop-color="#54c1ab" stop-opacity="1"></stop></linearGradient></defs><g transform="translate(540, 960)"><path d="M-374 0C-444.7 -80.3 -515.4 -160.6 -481.3 -199.4C-447.3 -238.2 -308.6 -235.5 -232.6 -232.6C-156.7 -229.8 -143.5 -226.9 -115.2 -278.1C-86.9 -329.3 -43.4 -434.6 0 -540L0 0Z" fill="#328d9f"></path><path d="M-187 0C-222.3 -40.1 -257.7 -80.3 -240.7 -99.7C-223.7 -119.1 -154.3 -117.7 -116.3 -116.3C-78.3 -114.9 -71.7 -113.4 -57.6 -139C-43.4 -164.6 -21.7 -217.3 0 -270L0 0Z" fill="#54c1ab"></path></g><g transform="translate(0, 0)"><path d="M410 0C459.3 73 508.7 146 498.9 206.6C489.1 267.3 420.3 315.6 359.9 359.9C299.5 404.2 247.6 444.4 189 456.4C130.5 468.4 65.2 452.2 0 436L0 0Z" fill="#328d9f"></path><path d="M205 0C229.7 36.5 254.3 73 249.4 103.3C244.6 133.7 210.1 157.8 180 180C149.8 202.1 123.8 222.2 94.5 228.2C65.2 234.2 32.6 226.1 0 218L0 0Z" fill="#54c1ab"></path></g></svg>